inDegrees=no
num_controls=7
num_derivatives=13
num_iterations=137
num_multipliers=7
num_parameters=0
num_slacks=7
num_states=26
objective=0.529143
objective_accelerations=0.026297
objective_balance=0.001061
objective_effort=0.035407
objective_height=0.454525
objective_ligament=0.011853
solver_duration=1758.949975
status=Solve_Succeeded
success=true
DataType=double
version=3
OpenSimVersion=4.5
endheader
time	/jointset/ground_pelvis/pelvis_tilt/value	/jointset/ground_pelvis/pelvis_tx/value	/jointset/ground_pelvis/pelvis_ty/value	/jointset/hip_l/hip_flexion_l/value	/jointset/hip_l/hip_adduction_l/value	/jointset/hip_l/hip_rotation_l/value	/jointset/back/lumbar_extension/value	/jointset/patellofemoral_l/patellar_flexion_l/value	/jointset/knee_l/knee_flexion_l/value	/jointset/knee_l/knee_adduction_l/value	/jointset/knee_l/knee_rotation_l/value	/jointset/ankle_l/ankle_angle_l/value	/jointset/subtalar_l/subtalar_angle_l/value	/jointset/ground_pelvis/pelvis_tilt/speed	/jointset/ground_pelvis/pelvis_tx/speed	/jointset/ground_pelvis/pelvis_ty/speed	/jointset/hip_l/hip_flexion_l/speed	/jointset/hip_l/hip_adduction_l/speed	/jointset/hip_l/hip_rotation_l/speed	/jointset/back/lumbar_extension/speed	/jointset/patellofemoral_l/patellar_flexion_l/speed	/jointset/knee_l/knee_flexion_l/speed	/jointset/knee_l/knee_adduction_l/speed	/jointset/knee_l/knee_rotation_l/speed	/jointset/ankle_l/ankle_angle_l/speed	/jointset/subtalar_l/subtalar_angle_l/speed	/forceset/tau_hip_flexion_l	/forceset/tau_hip_adduction_l	/forceset/tau_hip_rotation_l	/forceset/tau_knee_flexion_l	/forceset/tau_ankle_angle_l	/forceset/tau_subtalar_angle_l	/forceset/tau_lumbar_extension	lambda_cid13_p0	lambda_cid13_p1	lambda_cid13_p2	lambda_cid13_p3	lambda_cid13_p4	lambda_cid13_p5	lambda_cid14_p0	/jointset/ground_pelvis/pelvis_tilt/accel	/jointset/ground_pelvis/pelvis_tx/accel	/jointset/ground_pelvis/pelvis_ty/accel	/jointset/hip_l/hip_flexion_l/accel	/jointset/hip_l/hip_adduction_l/accel	/jointset/hip_l/hip_rotation_l/accel	/jointset/back/lumbar_extension/accel	/jointset/patellofemoral_l/patellar_flexion_l/accel	/jointset/knee_l/knee_flexion_l/accel	/jointset/knee_l/knee_adduction_l/accel	/jointset/knee_l/knee_rotation_l/accel	/jointset/ankle_l/ankle_angle_l/accel	/jointset/subtalar_l/subtalar_angle_l/accel	gamma_cid13_p0	gamma_cid13_p1	gamma_cid13_p2	gamma_cid13_p3	gamma_cid13_p4	gamma_cid13_p5	gamma_cid14_p0
0	-0.0368230162466046	0.05667750444475815	0.9203417201317334	0.3085816938045678	-0.2956387906378259	-0.3016076704422945	-0.3879492264334186	0.2499269421184919	0.2499269421184919	-0.1745297014954877	-0.1745323716341951	-0.0008036623358878681	0.000439349724103983	0	0	0	0	0	0	0	0	0	0	0	0	0	0.007750166890395063	-0.02421711541457288	-0.01603748807457358	-0.2147171586622775	0.2041679194344682	-0.01088619503619727	0.07010232486226066	21.31765587722761	-1.613139586258068	2.782345029614596	-20.89583428213014	-656.9433960353655	-70.407942385897	-23.19703359872024	1.935304931182421	-0.4325464012927943	-0.3083562360210014	2.563681183450288	-0.5967752608494137	2.614385210495872	-5.419432907046559	7.097627394633705	7.09762739463372	1.049406421424763	0.1206214254138319	3.119105305336126	0.428135277307695	-1.691412601386131e-08	1.431680879352225e-07	7.642915237359598e-08	1.516489188977563e-08	2.971312473508111e-08	-3.646908315677084e-08	4.887331176461226e-09
0.01	-0.03672566460627347	0.05665663993399628	0.9203268443554176	0.3087041424554925	-0.2956683750077238	-0.3014781839373228	-0.3882173320964106	0.2502749050023435	0.2502749050023435	-0.1744790410449995	-0.1745253140792511	-0.0006499697615027241	0.0004602525788528299	0.0194151212853382	-0.004103552067057578	-0.002955260690952016	0.02427651630887036	-0.005866274517537591	0.02560466686306985	-0.05320786757603181	0.06928715876910478	0.06928715876910495	0.01014501882001696	0.001248960428384045	0.03067219801758145	0.004213704195820987	0.003898249656782642	-0.03446568614249285	-0.01544427405800493	-0.2112646414123537	0.1961721586572799	0.001781969307381112	0.07381150947821701	19.12167924349483	-6.655193282725794	3.500254976923832	-20.59457605142247	-659.1085396525367	-80.78684711887128	-23.2007801022317	1.936328861106518	-0.3888540636361691	-0.2861208571718189	2.327649117667322	-0.5740006455554403	2.489608758738227	-5.20947392952861	6.798446440401074	6.798446440401087	0.9990231257399138	0.1026583222063076	3.031331662442769	0.4229266029000171	-2.685073777980122e-08	8.621435628309451e-08	1.095884990543584e-07	1.863184641285169e-08	-1.52267549948576e-08	-8.118361428528838e-08	-3.40171232604408e-09
0.02	-0.03643581912630955	0.05659682101171905	0.920283013997884	0.3090629587221183	-0.2957551115424669	-0.3011014304968153	-0.3890051184844922	0.2513065767383566	0.2513065767383566	-0.1743265357036212	-0.174510641925892	-0.0001915442844470417	0.0005242801979960304	0.03849876792655623	-0.00779088230307234	-0.005790916243484662	0.04727352314021716	-0.01143043296905552	0.04945338710716713	-0.1039361450179484	0.1367417704322979	0.1367417704322982	0.020368978178024	0.001522919682992762	0.06094658053410753	0.008624952878870645	4.633242317036106e-05	-0.04471425687041281	-0.01485106004143631	-0.2078121241624297	0.1881763978800917	0.01445013365095953	0.07752069409417342	16.9810487025231	-11.70692893285494	4.219698544290497	-20.49469866588058	-660.5310365439199	-91.09481779815647	-23.21201468471739	1.869010002358386	-0.349302035084231	-0.2844352083371276	2.307779287945574	-0.5363520476454822	2.263195886701359	-4.923514880223509	6.73111797345137	6.731117973451378	1.065194529022781	-0.07437880934123371	3.039542205125054	0.4676441747534286	-3.678734954574114e-08	2.926062463096654e-08	1.427478457351208e-07	2.209880093592775e-08	-6.016663472479631e-08	-1.258981454138059e-07	-1.169075582854939e-08
0.03	-0.03595670821251628	0.05650226373839469	0.92021136076953	0.3096451161364173	-0.2958958372065426	-0.3004935818571093	-0.3902874767495011	0.2530032452319596	0.2530032452319596	-0.1740715410148846	-0.1744965404473285	0.0005676243088263735	0.0006335341326376325	0.05728725781517083	-0.01104537457346847	-0.008523965936039313	0.06890059011531008	-0.01665492019590709	0.0720046285602047	-0.1521019626346006	0.2022306909722887	0.202230690972289	0.03061077505907851	0.001334921897624447	0.09081475270102506	0.01326435804161662	-0.004505310801001243	-0.03789591735934234	-0.01431184338396689	-0.203906350606075	0.1846257687971884	0.01121231695636993	0.08187077676076457	15.62208122178891	-10.13971850720159	4.057702021553558	-20.06026129436856	-662.4577271547862	-87.2791717917504	-23.23057413014856	1.878341438263694	-0.3022387209992624	-0.2653875409218083	2.051559995010052	-0.5065608123751297	2.234312387052377	-4.698083400004926	6.403595868513926	6.40359586851392	1.000817447063793	0.01464415161680548	2.94959619541177	0.467846408762473	-4.41638520516182e-08	6.930404917446035e-08	1.486866033827484e-07	4.085258496606623e-08	-1.090811798119548e-07	-1.148823513236557e-07	-7.130446821282093e-09
0.04	-0.03529079780860668	0.05637741836276998	0.9201128475060089	0.3104358221390108	-0.2960870204933209	-0.2996635759803835	-0.3920384868302002	0.2553439662858106	0.2553439662858107	-0.1737146993214541	-0.1744831880636684	0.001623302918356298	0.0007903336632521532	0.07585866594981328	-0.01384850276314311	-0.01116292327688097	0.08898324079915909	-0.02152195750956398	0.09388483451113962	-0.1976665081560015	0.265552282481919	0.2655522824819194	0.0407383791168202	0.001373100702313205	0.1202485837854093	0.01813407207345425	-0.009056954025172745	-0.03107757784827417	-0.01377262672649737	-0.2000005770497203	0.1810751397142853	0.007974500261780341	0.08622085942735579	14.31539462365909	-8.578366157818492	3.89287468074149	-19.82241037836321	-663.6893188718618	-83.39026468521145	-23.25588640675572	1.825593651563952	-0.2590292189399527	-0.265616737994523	1.998896029696797	-0.4648620650065352	2.128988786280874	-4.403260461173215	6.297652167379264	6.297652167379288	1.042355964360903	-0.02914349132985491	2.95267398861839	0.5137059485717592	-5.148756879955582e-08	1.113474150828124e-07	1.540641117719608e-07	5.992156135717509e-08	-1.580776767621487e-07	-1.027174783630175e-07	-2.305202710720517e-09
